<svg width="32" height="32" viewBox="0 0 32 32" fill="none" xmlns="http://www.w3.org/2000/svg">
  <rect width="32" height="32" rx="6" fill="#000000"/>
  <path d="M8 8C8 6.89543 8.89543 6 10 6C11.1046 6 12 6.89543 12 8V12C12 13.1046 11.1046 14 10 14C8.89543 14 8 13.1046 8 12V8Z" fill="white"/>
  <path d="M8 16C8 14.8954 8.89543 14 10 14C11.1046 14 12 14.8954 12 16V20C12 21.1046 11.1046 22 10 22C8.89543 22 8 21.1046 8 20V16Z" fill="white"/>
  <path d="M20 8C20 6.89543 20.8954 6 22 6C23.1046 6 24 6.89543 24 8V12C24 13.1046 23.1046 14 22 14C20.8954 14 20 13.1046 20 12V8Z" fill="white"/>
  <path d="M20 16C20 14.8954 20.8954 14 22 14C23.1046 14 24 14.8954 24 16V20C24 21.1046 23.1046 22 22 22C20.8954 22 20 21.1046 20 20V16Z" fill="white"/>
  <path d="M14 6C14 5.44772 14.4477 5 15 5C15.5523 5 16 5.44772 16 6V26C16 26.5523 15.5523 27 15 27C14.4477 27 14 26.5523 14 26V6Z" fill="white"/>
</svg>
